<svg width="330" height="330" xmlns="http://www.w3.org/2000/svg" xmlns:xlink="http://www.w3.org/1999/xlink" xml:space="preserve" overflow="hidden"><defs><clipPath id="clip0"><rect x="1678" y="137" width="331" height="83"/></clipPath><clipPath id="clip1"><rect x="1678" y="137" width="331" height="83"/></clipPath></defs><g transform="translate(-1679 -10)"><path d="M1716.81 113.125 1844 113.125 1971.19 113.125 1971.19 71.875 1716.81 71.875Z" stroke="#B4C7E7" stroke-width="1.86184" fill="#B4C7E7"/><path d="M1716.81 195.625 1844 195.625 1971.19 195.625 1971.19 154.375 1716.81 154.375Z" stroke="#B4C7E7" stroke-width="1.86184" fill="#B4C7E7"/><path d="M1716.81 278.125 1844 278.125 1971.19 278.125 1971.19 236.875 1716.81 236.875Z" stroke="#B4C7E7" stroke-width="1.86184" fill="#B4C7E7"/><g clip-path="url(#clip0)"><g clip-path="url(#clip1)"><g><path d="M37.7389 102.924 164.679 102.924 291.619 102.924 291.619 61.7546 37.7389 61.7546Z" stroke="#7F7F7F" stroke-width="1.85822" fill="#7F7F7F" transform="matrix(1.00195 0 0 1 1679 9.62941)"/><path d="M37.7389 185.264 164.679 185.264 291.619 185.264 291.619 144.094 37.7389 144.094Z" stroke="#7F7F7F" stroke-width="1.85822" fill="#7F7F7F" transform="matrix(1.00195 0 0 1 1679 9.62941)"/><path d="M37.7389 267.603 164.679 267.603 291.619 267.603 291.619 226.433 37.7389 226.433Z" stroke="#7F7F7F" stroke-width="1.85822" fill="#7F7F7F" transform="matrix(1.00195 0 0 1 1679 9.62941)"/></g></g></g></g></svg>