<svg width="203" height="203" xmlns="http://www.w3.org/2000/svg" xmlns:xlink="http://www.w3.org/1999/xlink" xml:space="preserve" overflow="hidden"><defs><clipPath id="clip0"><rect x="1796" y="503" width="111" height="29"/></clipPath><clipPath id="clip1"><rect x="1796" y="503" width="111" height="29"/></clipPath></defs><g transform="translate(-1750 -415)"><path d="M1750.5 449.167C1750.5 430.573 1765.57 415.5 1784.17 415.5L1918.83 415.5C1937.43 415.5 1952.5 430.573 1952.5 449.167L1952.5 583.833C1952.5 602.427 1937.43 617.5 1918.83 617.5L1784.17 617.5C1765.57 617.5 1750.5 602.427 1750.5 583.833Z" stroke="#2196F3" stroke-width="0.620735" stroke-miterlimit="8" fill="#2196F3" fill-rule="evenodd"/><g><g><g><path d="M1808.6 495.375 1851 495.375 1893.4 495.375 1893.4 481.625 1808.6 481.625Z" stroke="#B4C7E7" stroke-width="0.620615" fill="#B4C7E7"/><path d="M1808.6 522.875 1851 522.875 1893.4 522.875 1893.4 509.125 1808.6 509.125Z" stroke="#B4C7E7" stroke-width="0.620615" fill="#B4C7E7"/><path d="M1808.6 550.375 1851 550.375 1893.4 550.375 1893.4 536.625 1808.6 536.625Z" stroke="#B4C7E7" stroke-width="0.620615" fill="#B4C7E7"/></g></g></g><g clip-path="url(#clip0)"><g clip-path="url(#clip1)"><g><path d="M12.4263 33.8898 54.2237 33.8898 96.0212 33.8898 96.0212 20.3339 12.4263 20.3339Z" stroke="#7F7F7F" stroke-width="0.611855" fill="#7F7F7F" transform="matrix(1.01432 0 0 1 1796 461.731)"/><path d="M12.4263 61.0017 54.2237 61.0017 96.0212 61.0017 96.0212 47.4458 12.4263 47.4458Z" stroke="#7F7F7F" stroke-width="0.611855" fill="#7F7F7F" transform="matrix(1.01432 0 0 1 1796 461.731)"/><path d="M12.4263 88.1136 54.2237 88.1136 96.0212 88.1136 96.0212 74.5576 12.4263 74.5576Z" stroke="#7F7F7F" stroke-width="0.611855" fill="#7F7F7F" transform="matrix(1.01432 0 0 1 1796 461.731)"/></g></g></g></g></svg>